<mxfile host="app.diagrams.net" modified="2022-08-16T03:32:10.054Z" agent="5.0 (X11; Linux x86_64) AppleWebKit/537.36 (KHTML, like Gecko) Chrome/103.0.0.0 Safari/537.36" etag="Bnh4g_CIW1zahd-MTBqY" version="20.2.3" type="github">
  <diagram id="Uv1PPevyKDhio1jruvgt" name="Page-1">
    <mxGraphModel dx="1350" dy="773" grid="1" gridSize="10" guides="1" tooltips="1" connect="1" arrows="1" fold="1" page="1" pageScale="1" pageWidth="850" pageHeight="1100" math="0" shadow="0">
      <root>
        <mxCell id="0" />
        <mxCell id="1" parent="0" />
        <mxCell id="BvXIC0Oa_9aoLFbftnIB-10" style="edgeStyle=orthogonalEdgeStyle;rounded=0;orthogonalLoop=1;jettySize=auto;html=1;exitX=0.5;exitY=1;exitDx=0;exitDy=0;entryX=0.5;entryY=0;entryDx=0;entryDy=0;fontSize=14;" parent="1" source="ZdjtLYGXI-j0EzLjHC-S-1" target="5yJCihV8kMHdl1GdPkC9-1" edge="1">
          <mxGeometry relative="1" as="geometry" />
        </mxCell>
        <mxCell id="ZdjtLYGXI-j0EzLjHC-S-1" value="&lt;b&gt;虚拟伺服&lt;/b&gt;" style="rounded=1;whiteSpace=wrap;html=1;" parent="1" vertex="1">
          <mxGeometry x="439.5" y="453" width="120" height="60" as="geometry" />
        </mxCell>
        <mxCell id="ZdjtLYGXI-j0EzLjHC-S-2" value="杆" style="rounded=1;whiteSpace=wrap;html=1;" parent="1" vertex="1">
          <mxGeometry x="210" y="143" width="50" height="310" as="geometry" />
        </mxCell>
        <mxCell id="ZdjtLYGXI-j0EzLjHC-S-4" value="" style="endArrow=none;html=1;rounded=0;" parent="1" edge="1">
          <mxGeometry width="50" height="50" relative="1" as="geometry">
            <mxPoint x="235.5" y="530" as="sourcePoint" />
            <mxPoint x="234.5" y="270" as="targetPoint" />
          </mxGeometry>
        </mxCell>
        <mxCell id="ZdjtLYGXI-j0EzLjHC-S-5" value="" style="shape=collate;whiteSpace=wrap;html=1;" parent="1" vertex="1">
          <mxGeometry x="200" y="530" width="70" height="60" as="geometry" />
        </mxCell>
        <mxCell id="ZdjtLYGXI-j0EzLjHC-S-6" value="" style="endArrow=none;html=1;rounded=0;entryX=0.5;entryY=1;entryDx=0;entryDy=0;" parent="1" target="ZdjtLYGXI-j0EzLjHC-S-5" edge="1">
          <mxGeometry width="50" height="50" relative="1" as="geometry">
            <mxPoint x="235" y="740" as="sourcePoint" />
            <mxPoint x="280" y="590" as="targetPoint" />
          </mxGeometry>
        </mxCell>
        <mxCell id="ZdjtLYGXI-j0EzLjHC-S-7" value="油缸" style="ellipse;whiteSpace=wrap;html=1;aspect=fixed;" parent="1" vertex="1">
          <mxGeometry x="180" y="740" width="110" height="110" as="geometry" />
        </mxCell>
        <mxCell id="ZdjtLYGXI-j0EzLjHC-S-8" value="" style="swimlane;startSize=0;" parent="1" vertex="1">
          <mxGeometry x="290" y="630" width="80" height="40" as="geometry" />
        </mxCell>
        <mxCell id="ZdjtLYGXI-j0EzLjHC-S-9" value="" style="shape=link;html=1;rounded=0;" parent="1" edge="1">
          <mxGeometry width="100" relative="1" as="geometry">
            <mxPoint x="210" y="270" as="sourcePoint" />
            <mxPoint x="260" y="270" as="targetPoint" />
          </mxGeometry>
        </mxCell>
        <mxCell id="ZdjtLYGXI-j0EzLjHC-S-10" value="" style="shape=link;html=1;rounded=0;entryX=0.75;entryY=0;entryDx=0;entryDy=0;" parent="1" target="ZdjtLYGXI-j0EzLjHC-S-8" edge="1">
          <mxGeometry width="100" relative="1" as="geometry">
            <mxPoint x="350" y="430" as="sourcePoint" />
            <mxPoint x="450" y="530" as="targetPoint" />
          </mxGeometry>
        </mxCell>
        <mxCell id="ZdjtLYGXI-j0EzLjHC-S-11" value="拉线编码器" style="text;html=1;align=center;verticalAlign=middle;resizable=0;points=[];autosize=1;strokeColor=none;fillColor=none;" parent="1" vertex="1">
          <mxGeometry x="300" y="640" width="80" height="20" as="geometry" />
        </mxCell>
        <mxCell id="d6lnLILZH5gSd420zXRn-3" style="edgeStyle=orthogonalEdgeStyle;rounded=0;orthogonalLoop=1;jettySize=auto;html=1;exitX=0.5;exitY=0;exitDx=0;exitDy=0;" parent="1" source="ZdjtLYGXI-j0EzLjHC-S-13" edge="1">
          <mxGeometry relative="1" as="geometry">
            <mxPoint x="500" y="150" as="targetPoint" />
          </mxGeometry>
        </mxCell>
        <mxCell id="ZdjtLYGXI-j0EzLjHC-S-13" value="ME端" style="rounded=1;whiteSpace=wrap;html=1;" parent="1" vertex="1">
          <mxGeometry x="439.5" y="150" width="120" height="50" as="geometry" />
        </mxCell>
        <mxCell id="ZdjtLYGXI-j0EzLjHC-S-15" value="can1 1Mbps" style="text;html=1;strokeColor=none;fillColor=none;align=center;verticalAlign=middle;whiteSpace=wrap;rounded=0;" parent="1" vertex="1">
          <mxGeometry x="408" y="624" width="60" height="30" as="geometry" />
        </mxCell>
        <mxCell id="ZdjtLYGXI-j0EzLjHC-S-16" value="先IO控制,再比例流量控制" style="text;html=1;strokeColor=none;fillColor=none;align=center;verticalAlign=middle;whiteSpace=wrap;rounded=0;" parent="1" vertex="1">
          <mxGeometry x="90" y="650" width="60" height="60" as="geometry" />
        </mxCell>
        <mxCell id="ZdjtLYGXI-j0EzLjHC-S-17" value="" style="endArrow=classic;startArrow=classic;html=1;rounded=0;" parent="1" edge="1">
          <mxGeometry width="50" height="50" relative="1" as="geometry">
            <mxPoint x="110" y="650" as="sourcePoint" />
            <mxPoint x="210" y="560" as="targetPoint" />
          </mxGeometry>
        </mxCell>
        <mxCell id="ZdjtLYGXI-j0EzLjHC-S-18" value="mqtt /msgcenter&amp;nbsp;" style="text;html=1;strokeColor=none;fillColor=none;align=center;verticalAlign=middle;whiteSpace=wrap;rounded=0;" parent="1" vertex="1">
          <mxGeometry x="730" y="760" width="60" height="30" as="geometry" />
        </mxCell>
        <mxCell id="ZdjtLYGXI-j0EzLjHC-S-22" value="" style="endArrow=classic;html=1;rounded=0;" parent="1" edge="1">
          <mxGeometry width="50" height="50" relative="1" as="geometry">
            <mxPoint x="410" y="950" as="sourcePoint" />
            <mxPoint x="80" y="870" as="targetPoint" />
            <Array as="points">
              <mxPoint x="180" y="910" />
            </Array>
          </mxGeometry>
        </mxCell>
        <mxCell id="ZdjtLYGXI-j0EzLjHC-S-23" value="&lt;b&gt;编码器值，与实际的距离&lt;/b&gt;" style="text;html=1;strokeColor=none;fillColor=none;align=center;verticalAlign=middle;whiteSpace=wrap;rounded=0;" parent="1" vertex="1">
          <mxGeometry x="330" y="690" width="60" height="30" as="geometry" />
        </mxCell>
        <mxCell id="ZdjtLYGXI-j0EzLjHC-S-24" value="cansend 配置相关模式和数据输出" style="rounded=1;whiteSpace=wrap;html=1;" parent="1" vertex="1">
          <mxGeometry x="370" y="740" width="80" height="40" as="geometry" />
        </mxCell>
        <mxCell id="ZdjtLYGXI-j0EzLjHC-S-25" value="" style="endArrow=none;html=1;rounded=0;" parent="1" edge="1">
          <mxGeometry width="50" height="50" relative="1" as="geometry">
            <mxPoint x="140" y="180" as="sourcePoint" />
            <mxPoint x="210" y="180" as="targetPoint" />
          </mxGeometry>
        </mxCell>
        <mxCell id="ZdjtLYGXI-j0EzLjHC-S-28" value="" style="endArrow=classic;html=1;rounded=0;" parent="1" edge="1">
          <mxGeometry width="50" height="50" relative="1" as="geometry">
            <mxPoint x="110" y="870" as="sourcePoint" />
            <mxPoint x="120" y="710" as="targetPoint" />
          </mxGeometry>
        </mxCell>
        <mxCell id="BvXIC0Oa_9aoLFbftnIB-11" style="edgeStyle=orthogonalEdgeStyle;rounded=0;orthogonalLoop=1;jettySize=auto;html=1;exitX=1;exitY=0.5;exitDx=0;exitDy=0;fontSize=14;" parent="1" source="ZdjtLYGXI-j0EzLjHC-S-29" target="ZdjtLYGXI-j0EzLjHC-S-1" edge="1">
          <mxGeometry relative="1" as="geometry" />
        </mxCell>
        <mxCell id="ZdjtLYGXI-j0EzLjHC-S-29" value="LiftDriver" style="rounded=1;whiteSpace=wrap;html=1;direction=south;" parent="1" vertex="1">
          <mxGeometry x="461" y="330" width="77" height="60" as="geometry" />
        </mxCell>
        <mxCell id="ZdjtLYGXI-j0EzLjHC-S-31" value="外部发送topic验证" style="shape=hexagon;perimeter=hexagonPerimeter2;whiteSpace=wrap;html=1;fixedSize=1;" parent="1" vertex="1">
          <mxGeometry x="400" y="1030" width="120" height="60" as="geometry" />
        </mxCell>
        <mxCell id="ZdjtLYGXI-j0EzLjHC-S-32" value="" style="endArrow=none;dashed=1;html=1;dashPattern=1 3;strokeWidth=2;rounded=0;entryX=0.5;entryY=1;entryDx=0;entryDy=0;" parent="1" source="ZdjtLYGXI-j0EzLjHC-S-31" edge="1">
          <mxGeometry width="50" height="50" relative="1" as="geometry">
            <mxPoint x="730" y="940" as="sourcePoint" />
            <mxPoint x="602.5" y="960" as="targetPoint" />
          </mxGeometry>
        </mxCell>
        <mxCell id="ZdjtLYGXI-j0EzLjHC-S-33" value="" style="endArrow=classic;html=1;rounded=0;exitX=0.5;exitY=1;exitDx=0;exitDy=0;" parent="1" source="ZdjtLYGXI-j0EzLjHC-S-13" target="d6lnLILZH5gSd420zXRn-1" edge="1">
          <mxGeometry width="50" height="50" relative="1" as="geometry">
            <mxPoint x="400" y="370" as="sourcePoint" />
            <mxPoint x="450" y="320" as="targetPoint" />
          </mxGeometry>
        </mxCell>
        <mxCell id="ZdjtLYGXI-j0EzLjHC-S-34" value="20ms回传" style="text;html=1;strokeColor=none;fillColor=none;align=center;verticalAlign=middle;whiteSpace=wrap;rounded=0;" parent="1" vertex="1">
          <mxGeometry x="413" y="660" width="60" height="30" as="geometry" />
        </mxCell>
        <mxCell id="BvXIC0Oa_9aoLFbftnIB-9" style="edgeStyle=orthogonalEdgeStyle;rounded=0;orthogonalLoop=1;jettySize=auto;html=1;fontSize=14;" parent="1" source="ZdjtLYGXI-j0EzLjHC-S-37" edge="1">
          <mxGeometry relative="1" as="geometry">
            <Array as="points">
              <mxPoint x="800" y="480" />
            </Array>
            <mxPoint x="560" y="480" as="targetPoint" />
          </mxGeometry>
        </mxCell>
        <mxCell id="ZdjtLYGXI-j0EzLjHC-S-37" value="signal_encoder" style="text;html=1;strokeColor=none;fillColor=none;align=center;verticalAlign=middle;whiteSpace=wrap;rounded=0;" parent="1" vertex="1">
          <mxGeometry x="740" y="650" width="100" height="30" as="geometry" />
        </mxCell>
        <mxCell id="bZBwHUKGw5rUKfdNZuir-1" value="&lt;b&gt;/cmd_vel&lt;br&gt;相关topic验证&lt;/b&gt;" style="ellipse;whiteSpace=wrap;html=1;" parent="1" vertex="1">
          <mxGeometry x="670" y="250" width="120" height="80" as="geometry" />
        </mxCell>
        <mxCell id="bZBwHUKGw5rUKfdNZuir-2" value="" style="endArrow=none;dashed=1;html=1;dashPattern=1 3;strokeWidth=2;rounded=0;entryX=-0.025;entryY=0.588;entryDx=0;entryDy=0;entryPerimeter=0;" parent="1" source="ZdjtLYGXI-j0EzLjHC-S-29" target="bZBwHUKGw5rUKfdNZuir-1" edge="1">
          <mxGeometry width="50" height="50" relative="1" as="geometry">
            <mxPoint x="640" y="280" as="sourcePoint" />
            <mxPoint x="690" y="230" as="targetPoint" />
          </mxGeometry>
        </mxCell>
        <mxCell id="jch9uC5gcHZ-2w2xDuGa-2" value="" style="edgeStyle=orthogonalEdgeStyle;rounded=0;orthogonalLoop=1;jettySize=auto;html=1;" parent="1" source="jch9uC5gcHZ-2w2xDuGa-1" target="ZdjtLYGXI-j0EzLjHC-S-13" edge="1">
          <mxGeometry relative="1" as="geometry" />
        </mxCell>
        <mxCell id="jch9uC5gcHZ-2w2xDuGa-1" value="&lt;b&gt;tools/send_command.py 发送json数据，/wcs_server/ topic&lt;/b&gt;" style="rounded=1;whiteSpace=wrap;html=1;" parent="1" vertex="1">
          <mxGeometry x="394.5" y="50" width="210" height="60" as="geometry" />
        </mxCell>
        <mxCell id="jch9uC5gcHZ-2w2xDuGa-6" value="" style="endArrow=classic;html=1;rounded=0;exitX=0.75;exitY=0;exitDx=0;exitDy=0;entryX=1;entryY=0.25;entryDx=0;entryDy=0;" parent="1" source="ZdjtLYGXI-j0EzLjHC-S-1" target="ZdjtLYGXI-j0EzLjHC-S-29" edge="1">
          <mxGeometry width="50" height="50" relative="1" as="geometry">
            <mxPoint x="400" y="480" as="sourcePoint" />
            <mxPoint x="540" y="400" as="targetPoint" />
            <Array as="points" />
          </mxGeometry>
        </mxCell>
        <mxCell id="5yJCihV8kMHdl1GdPkC9-6" style="edgeStyle=orthogonalEdgeStyle;rounded=0;orthogonalLoop=1;jettySize=auto;html=1;exitX=0.5;exitY=1;exitDx=0;exitDy=0;entryX=0.5;entryY=0;entryDx=0;entryDy=0;fontSize=14;" parent="1" source="5yJCihV8kMHdl1GdPkC9-1" target="5yJCihV8kMHdl1GdPkC9-4" edge="1">
          <mxGeometry relative="1" as="geometry" />
        </mxCell>
        <mxCell id="BvXIC0Oa_9aoLFbftnIB-3" style="edgeStyle=orthogonalEdgeStyle;rounded=0;orthogonalLoop=1;jettySize=auto;html=1;exitX=1;exitY=0.5;exitDx=0;exitDy=0;entryX=0.388;entryY=0;entryDx=0;entryDy=0;entryPerimeter=0;fontSize=14;" parent="1" source="5yJCihV8kMHdl1GdPkC9-1" target="BvXIC0Oa_9aoLFbftnIB-1" edge="1">
          <mxGeometry relative="1" as="geometry" />
        </mxCell>
        <mxCell id="5yJCihV8kMHdl1GdPkC9-1" value="setspeed&amp;gt;0" style="rhombus;whiteSpace=wrap;html=1;" parent="1" vertex="1">
          <mxGeometry x="459.5" y="575" width="80" height="80" as="geometry" />
        </mxCell>
        <mxCell id="BvXIC0Oa_9aoLFbftnIB-6" style="edgeStyle=orthogonalEdgeStyle;rounded=0;orthogonalLoop=1;jettySize=auto;html=1;fontSize=14;entryX=0.296;entryY=0;entryDx=0;entryDy=0;entryPerimeter=0;" parent="1" source="5yJCihV8kMHdl1GdPkC9-4" target="BvXIC0Oa_9aoLFbftnIB-5" edge="1">
          <mxGeometry relative="1" as="geometry">
            <mxPoint x="519" y="870" as="targetPoint" />
          </mxGeometry>
        </mxCell>
        <mxCell id="5yJCihV8kMHdl1GdPkC9-4" value="伺服电机" style="rounded=1;whiteSpace=wrap;html=1;fontStyle=1;fontSize=14;" parent="1" vertex="1">
          <mxGeometry x="477" y="730" width="85" height="60" as="geometry" />
        </mxCell>
        <mxCell id="5yJCihV8kMHdl1GdPkC9-7" value="" style="endArrow=classic;html=1;rounded=0;fontSize=14;entryX=0.983;entryY=0.625;entryDx=0;entryDy=0;entryPerimeter=0;exitX=0;exitY=0.5;exitDx=0;exitDy=0;" parent="1" source="5yJCihV8kMHdl1GdPkC9-4" target="ZdjtLYGXI-j0EzLjHC-S-7" edge="1">
          <mxGeometry width="50" height="50" relative="1" as="geometry">
            <mxPoint x="507" y="600" as="sourcePoint" />
            <mxPoint x="340" y="810" as="targetPoint" />
            <Array as="points" />
          </mxGeometry>
        </mxCell>
        <mxCell id="5yJCihV8kMHdl1GdPkC9-10" value="&lt;b&gt;Y&lt;/b&gt;" style="text;html=1;strokeColor=none;fillColor=none;align=center;verticalAlign=middle;whiteSpace=wrap;rounded=0;fontSize=14;" parent="1" vertex="1">
          <mxGeometry x="502" y="665" width="60" height="30" as="geometry" />
        </mxCell>
        <mxCell id="5yJCihV8kMHdl1GdPkC9-11" value="&amp;lt;0" style="text;html=1;strokeColor=none;fillColor=none;align=center;verticalAlign=middle;whiteSpace=wrap;rounded=0;fontSize=14;" parent="1" vertex="1">
          <mxGeometry x="604.5" y="654" width="60" height="30" as="geometry" />
        </mxCell>
        <mxCell id="5yJCihV8kMHdl1GdPkC9-12" value="" style="endArrow=none;dashed=1;html=1;rounded=0;fontSize=14;entryX=0;entryY=0.5;entryDx=0;entryDy=0;exitX=0.875;exitY=0;exitDx=0;exitDy=0;exitPerimeter=0;" parent="1" source="ZdjtLYGXI-j0EzLjHC-S-8" target="ZdjtLYGXI-j0EzLjHC-S-1" edge="1">
          <mxGeometry width="50" height="50" relative="1" as="geometry">
            <mxPoint x="450" y="720" as="sourcePoint" />
            <mxPoint x="500" y="670" as="targetPoint" />
          </mxGeometry>
        </mxCell>
        <mxCell id="d6lnLILZH5gSd420zXRn-7" value="" style="edgeStyle=orthogonalEdgeStyle;rounded=0;orthogonalLoop=1;jettySize=auto;html=1;" parent="1" source="BvXIC0Oa_9aoLFbftnIB-1" target="d6lnLILZH5gSd420zXRn-5" edge="1">
          <mxGeometry relative="1" as="geometry" />
        </mxCell>
        <mxCell id="BvXIC0Oa_9aoLFbftnIB-1" value="Modbus/tcp模拟电流控制" style="rounded=1;whiteSpace=wrap;html=1;fontStyle=1;fontSize=14;" parent="1" vertex="1">
          <mxGeometry x="585" y="705" width="85" height="55" as="geometry" />
        </mxCell>
        <mxCell id="BvXIC0Oa_9aoLFbftnIB-7" style="edgeStyle=orthogonalEdgeStyle;rounded=0;orthogonalLoop=1;jettySize=auto;html=1;exitX=0.5;exitY=1;exitDx=0;exitDy=0;fontSize=14;entryX=0.75;entryY=0;entryDx=0;entryDy=0;" parent="1" source="BvXIC0Oa_9aoLFbftnIB-2" target="BvXIC0Oa_9aoLFbftnIB-5" edge="1">
          <mxGeometry relative="1" as="geometry">
            <mxPoint x="640" y="920" as="targetPoint" />
            <Array as="points">
              <mxPoint x="628" y="900" />
              <mxPoint x="575" y="900" />
            </Array>
          </mxGeometry>
        </mxCell>
        <mxCell id="BvXIC0Oa_9aoLFbftnIB-2" value="比例流量阀" style="rounded=1;whiteSpace=wrap;html=1;fontStyle=1;fontSize=14;" parent="1" vertex="1">
          <mxGeometry x="567.5" y="850" width="85" height="40" as="geometry" />
        </mxCell>
        <mxCell id="BvXIC0Oa_9aoLFbftnIB-8" style="edgeStyle=orthogonalEdgeStyle;rounded=0;orthogonalLoop=1;jettySize=auto;html=1;entryX=0.67;entryY=1.1;entryDx=0;entryDy=0;entryPerimeter=0;fontSize=14;" parent="1" source="BvXIC0Oa_9aoLFbftnIB-5" target="ZdjtLYGXI-j0EzLjHC-S-37" edge="1">
          <mxGeometry relative="1" as="geometry" />
        </mxCell>
        <mxCell id="BvXIC0Oa_9aoLFbftnIB-5" value="位置反馈(拉线编码器)" style="rounded=1;whiteSpace=wrap;html=1;fontSize=14;" parent="1" vertex="1">
          <mxGeometry x="484.5" y="910" width="120" height="70" as="geometry" />
        </mxCell>
        <mxCell id="rsGYJd1zdUsUm8Rm8bc5-1" value="模拟量模块输出电流0" style="rounded=1;whiteSpace=wrap;html=1;fontStyle=1;fontSize=14;" parent="1" vertex="1">
          <mxGeometry x="684.5" y="800" width="85" height="40" as="geometry" />
        </mxCell>
        <mxCell id="rsGYJd1zdUsUm8Rm8bc5-7" value="" style="edgeStyle=orthogonalEdgeStyle;rounded=0;orthogonalLoop=1;jettySize=auto;html=1;" parent="1" source="rsGYJd1zdUsUm8Rm8bc5-2" target="rsGYJd1zdUsUm8Rm8bc5-1" edge="1">
          <mxGeometry relative="1" as="geometry" />
        </mxCell>
        <mxCell id="rsGYJd1zdUsUm8Rm8bc5-2" value="伺服电机停止" style="rounded=1;whiteSpace=wrap;html=1;fontStyle=1;fontSize=14;" parent="1" vertex="1">
          <mxGeometry x="684.5" y="705" width="85" height="40" as="geometry" />
        </mxCell>
        <mxCell id="rsGYJd1zdUsUm8Rm8bc5-3" value="" style="endArrow=none;html=1;rounded=0;" parent="1" source="rsGYJd1zdUsUm8Rm8bc5-2" edge="1">
          <mxGeometry width="50" height="50" relative="1" as="geometry">
            <mxPoint x="730" y="700" as="sourcePoint" />
            <mxPoint x="620" y="620" as="targetPoint" />
            <Array as="points">
              <mxPoint x="720" y="620" />
              <mxPoint x="670" y="620" />
            </Array>
          </mxGeometry>
        </mxCell>
        <mxCell id="rsGYJd1zdUsUm8Rm8bc5-8" value="=0" style="text;html=1;strokeColor=none;fillColor=none;align=center;verticalAlign=middle;whiteSpace=wrap;rounded=0;fontSize=14;" parent="1" vertex="1">
          <mxGeometry x="680" y="654" width="60" height="30" as="geometry" />
        </mxCell>
        <mxCell id="rsGYJd1zdUsUm8Rm8bc5-11" value="板卡:wifi+eth0&lt;br&gt;wifi 1个网段&lt;br&gt;eth0 另一个网段.&lt;br&gt;6.1xx.模拟量模块192.168.6.100" style="text;html=1;strokeColor=none;fillColor=none;align=center;verticalAlign=middle;whiteSpace=wrap;rounded=0;" parent="1" vertex="1">
          <mxGeometry x="90" y="940" width="80" height="80" as="geometry" />
        </mxCell>
        <mxCell id="rsGYJd1zdUsUm8Rm8bc5-12" value="" style="endArrow=none;dashed=1;html=1;dashPattern=1 3;strokeWidth=2;rounded=0;entryX=0.388;entryY=1.075;entryDx=0;entryDy=0;entryPerimeter=0;" parent="1" target="ZdjtLYGXI-j0EzLjHC-S-8" edge="1">
          <mxGeometry width="50" height="50" relative="1" as="geometry">
            <mxPoint x="480" y="970" as="sourcePoint" />
            <mxPoint x="450" y="920" as="targetPoint" />
            <Array as="points">
              <mxPoint x="370" y="850" />
            </Array>
          </mxGeometry>
        </mxCell>
        <mxCell id="d6lnLILZH5gSd420zXRn-2" value="" style="edgeStyle=orthogonalEdgeStyle;rounded=0;orthogonalLoop=1;jettySize=auto;html=1;" parent="1" source="d6lnLILZH5gSd420zXRn-1" target="ZdjtLYGXI-j0EzLjHC-S-29" edge="1">
          <mxGeometry relative="1" as="geometry" />
        </mxCell>
        <mxCell id="fzwWZY3ugOz4Eh3K3dzj-1" style="edgeStyle=orthogonalEdgeStyle;rounded=0;orthogonalLoop=1;jettySize=auto;html=1;exitX=0.75;exitY=0;exitDx=0;exitDy=0;entryX=0.75;entryY=1;entryDx=0;entryDy=0;fontSize=10;" edge="1" parent="1" source="d6lnLILZH5gSd420zXRn-1" target="ZdjtLYGXI-j0EzLjHC-S-13">
          <mxGeometry relative="1" as="geometry" />
        </mxCell>
        <mxCell id="d6lnLILZH5gSd420zXRn-1" value="Odom" style="rounded=1;whiteSpace=wrap;html=1;" parent="1" vertex="1">
          <mxGeometry x="439.5" y="240" width="120" height="50" as="geometry" />
        </mxCell>
        <mxCell id="d6lnLILZH5gSd420zXRn-4" value="" style="endArrow=classic;html=1;rounded=0;exitX=0.017;exitY=0.156;exitDx=0;exitDy=0;exitPerimeter=0;" parent="1" source="ZdjtLYGXI-j0EzLjHC-S-29" target="d6lnLILZH5gSd420zXRn-1" edge="1">
          <mxGeometry width="50" height="50" relative="1" as="geometry">
            <mxPoint x="610" y="410" as="sourcePoint" />
            <mxPoint x="520" y="300" as="targetPoint" />
            <Array as="points">
              <mxPoint x="526" y="310" />
              <mxPoint x="526" y="290" />
            </Array>
          </mxGeometry>
        </mxCell>
        <mxCell id="d6lnLILZH5gSd420zXRn-5" value="线程写入模拟量模块寄存器" style="rounded=1;whiteSpace=wrap;html=1;" parent="1" vertex="1">
          <mxGeometry x="580" y="790" width="60" height="40" as="geometry" />
        </mxCell>
        <mxCell id="d6lnLILZH5gSd420zXRn-12" value="" style="endArrow=classic;html=1;rounded=0;entryX=0.5;entryY=0;entryDx=0;entryDy=0;" parent="1" source="d6lnLILZH5gSd420zXRn-5" target="BvXIC0Oa_9aoLFbftnIB-2" edge="1">
          <mxGeometry width="50" height="50" relative="1" as="geometry">
            <mxPoint x="450" y="880" as="sourcePoint" />
            <mxPoint x="500" y="830" as="targetPoint" />
          </mxGeometry>
        </mxCell>
        <mxCell id="d6lnLILZH5gSd420zXRn-13" value="另外一路IO控制" style="text;html=1;strokeColor=none;fillColor=none;align=center;verticalAlign=middle;whiteSpace=wrap;rounded=0;" parent="1" vertex="1">
          <mxGeometry x="10" y="650" width="60" height="60" as="geometry" />
        </mxCell>
        <mxCell id="d6lnLILZH5gSd420zXRn-14" value="" style="endArrow=classic;startArrow=classic;html=1;rounded=0;entryX=0.5;entryY=1;entryDx=0;entryDy=0;" parent="1" target="d6lnLILZH5gSd420zXRn-13" edge="1">
          <mxGeometry width="50" height="50" relative="1" as="geometry">
            <mxPoint x="80" y="860" as="sourcePoint" />
            <mxPoint x="60" y="770" as="targetPoint" />
          </mxGeometry>
        </mxCell>
        <mxCell id="d6lnLILZH5gSd420zXRn-15" value="" style="endArrow=classic;html=1;rounded=0;exitX=0.5;exitY=0.167;exitDx=0;exitDy=0;exitPerimeter=0;" parent="1" source="d6lnLILZH5gSd420zXRn-13" edge="1">
          <mxGeometry width="50" height="50" relative="1" as="geometry">
            <mxPoint x="30" y="690" as="sourcePoint" />
            <mxPoint x="100" y="570" as="targetPoint" />
          </mxGeometry>
        </mxCell>
        <mxCell id="d6lnLILZH5gSd420zXRn-16" value="" style="shape=sortShape;perimeter=rhombusPerimeter;whiteSpace=wrap;html=1;" parent="1" vertex="1">
          <mxGeometry x="60" y="490" width="80" height="80" as="geometry" />
        </mxCell>
        <mxCell id="d6lnLILZH5gSd420zXRn-17" value="" style="endArrow=none;html=1;rounded=0;exitX=0.5;exitY=0;exitDx=0;exitDy=0;entryX=0.25;entryY=1;entryDx=0;entryDy=0;" parent="1" source="d6lnLILZH5gSd420zXRn-16" target="ZdjtLYGXI-j0EzLjHC-S-2" edge="1">
          <mxGeometry width="50" height="50" relative="1" as="geometry">
            <mxPoint x="210" y="480" as="sourcePoint" />
            <mxPoint x="260" y="430" as="targetPoint" />
          </mxGeometry>
        </mxCell>
        <mxCell id="d6lnLILZH5gSd420zXRn-20" style="edgeStyle=orthogonalEdgeStyle;rounded=0;orthogonalLoop=1;jettySize=auto;html=1;entryX=0.997;entryY=0.192;entryDx=0;entryDy=0;entryPerimeter=0;" parent="1" source="d6lnLILZH5gSd420zXRn-18" target="BvXIC0Oa_9aoLFbftnIB-5" edge="1">
          <mxGeometry relative="1" as="geometry">
            <Array as="points">
              <mxPoint x="715" y="910" />
              <mxPoint x="637" y="910" />
              <mxPoint x="637" y="923" />
            </Array>
          </mxGeometry>
        </mxCell>
        <mxCell id="d6lnLILZH5gSd420zXRn-18" value="&lt;font style=&quot;font-size: 10px;&quot;&gt;下降转速较大,开启另外一路IO控制&lt;/font&gt;" style="rounded=1;whiteSpace=wrap;html=1;" parent="1" vertex="1">
          <mxGeometry x="670" y="860" width="90" height="30" as="geometry" />
        </mxCell>
        <mxCell id="d6lnLILZH5gSd420zXRn-19" value="" style="endArrow=classic;html=1;rounded=0;entryX=0.125;entryY=-0.092;entryDx=0;entryDy=0;entryPerimeter=0;exitX=0.75;exitY=1;exitDx=0;exitDy=0;" parent="1" source="BvXIC0Oa_9aoLFbftnIB-1" target="d6lnLILZH5gSd420zXRn-18" edge="1">
          <mxGeometry width="50" height="50" relative="1" as="geometry">
            <mxPoint x="640" y="810" as="sourcePoint" />
            <mxPoint x="690" y="760" as="targetPoint" />
          </mxGeometry>
        </mxCell>
        <mxCell id="fzwWZY3ugOz4Eh3K3dzj-2" value="updateLift ,publish Topic" style="text;html=1;strokeColor=none;fillColor=none;align=center;verticalAlign=middle;whiteSpace=wrap;rounded=0;fontSize=10;" vertex="1" parent="1">
          <mxGeometry x="545" y="204" width="85" height="30" as="geometry" />
        </mxCell>
      </root>
    </mxGraphModel>
  </diagram>
</mxfile>
